<svg xmlns="http://www.w3.org/2000/svg" viewBox="0 0 128 128" role="img" aria-label="Выбери Меня">
  <rect width="128" height="128" rx="34" fill="#fffaf6"/>
  <circle cx="64" cy="64" r="53" fill="none" stroke="#c6a45f" stroke-width="3"/>
  <path d="M31 79c13-4 20-14 25-31" fill="none" stroke="#738064" stroke-width="4" stroke-linecap="round"/>
  <path d="M97 79c-13-4-20-14-25-31" fill="none" stroke="#738064" stroke-width="4" stroke-linecap="round"/>
  <path d="M39 66c-10 1-15-2-20-8 10-3 17 0 20 8Z" fill="#8d9a77"/>
  <path d="M89 66c10 1 15-2 20-8-10-3-17 0-20 8Z" fill="#8d9a77"/>
  <ellipse cx="64" cy="43" rx="14" ry="22" fill="#f5d9df" stroke="#b56b80" stroke-width="2"/>
  <ellipse cx="85" cy="61" rx="14" ry="22" transform="rotate(72 85 61)" fill="#efd0d8" stroke="#b56b80" stroke-width="2"/>
  <ellipse cx="77" cy="86" rx="14" ry="22" transform="rotate(144 77 86)" fill="#f7e1e5" stroke="#b56b80" stroke-width="2"/>
  <ellipse cx="51" cy="86" rx="14" ry="22" transform="rotate(-144 51 86)" fill="#efd0d8" stroke="#b56b80" stroke-width="2"/>
  <ellipse cx="43" cy="61" rx="14" ry="22" transform="rotate(-72 43 61)" fill="#f7e1e5" stroke="#b56b80" stroke-width="2"/>
  <circle cx="64" cy="66" r="12" fill="#c6a45f"/>
  <circle cx="64" cy="66" r="4" fill="#fffaf6"/>
</svg>
